<?xml version="1.0" encoding="UTF-8"?>
<svg id="Ebene_1" xmlns="http://www.w3.org/2000/svg" version="1.1" viewBox="0 0 1133.03 396.48">
  <!-- Generator: Adobe Illustrator 30.3.0, SVG Export Plug-In . SVG Version: 2.1.3 Build 182)  -->
  <g>
    <polygon points="149.91 202.42 88.46 202.42 88.46 122.5 66.29 122.5 66.29 304.5 88.46 304.5 88.46 224.58 149.91 224.58 149.91 336.01 172.07 336.01 172.07 122.5 149.91 122.5 149.91 202.42" fill="#1d8172"/>
    <path d="M191.7,356.78h94.72v-96.31c-.03-12.87-6.81-24.78-17.87-31.37l-21.88-12.98h10.33c16.24-.02,29.4-13.18,29.42-29.42v-66.1h-94.72v236.18ZM213.86,142.77h50.39v43.93c0,4-3.25,7.25-7.25,7.25h-43.14v-51.19ZM257.24,248.16c4.34,2.59,7,7.26,7.01,12.31v74.15h-50.39v-112.19s43.38,25.73,43.38,25.73Z" fill="#1d8172"/>
    <path d="M389.66,284.2h-19.71v-70.7h-22.17v72.71c0,11.56-8.13,21.47-19.58,25.43V122.5h-22.16v213.14h11.09c21.46,0,39.96-12.04,48.22-29.28h46.48V122.5s-22.16,0-22.16,0v161.7Z" fill="#1d8172"/>
    <path d="M301.12,75.55v-30.66s-8.62-1.97-8.62-1.97c-35.18-7.98-71.71-7.98-106.89,0l-8.62,1.97v30.66h-110.71v22.16h110.71s22.16,0,22.16,0h0s0,0,0,0v-22.16h0v-12.8c26.38-4.87,53.42-4.87,79.8,0v12.8h0v22.16h0s22.16,0,22.16,0h0s110.71,0,110.71,0v-22.16h-110.71Z" fill="#1d8172"/>
  </g>
  <g>
    <g>
      <polygon points="485.41 75.77 485.41 136.6 497.5 136.6 497.5 110.8 527.16 110.8 527.16 136.6 539.21 136.6 539.21 75.77 527.16 75.77 527.16 100.37 497.5 100.37 497.5 75.77 485.41 75.77" fill="#244545"/>
      <path d="M587.91,69.77c3.23.18,6-2.29,6.18-5.52.01-.19.01-.38,0-.57.14-3.25-2.38-6-5.63-6.14-.18,0-.37,0-.55,0-3.23-.16-5.98,2.33-6.14,5.56,0,.19,0,.39,0,.58-.16,3.21,2.32,5.94,5.53,6.1.2,0,.41,0,.61,0h0Z" fill="#244545"/>
      <path d="M571.52,69.77c3.23.18,6-2.29,6.18-5.52.01-.19.01-.38,0-.57.14-3.25-2.38-6-5.63-6.14-.18,0-.37,0-.55,0-3.23-.14-5.95,2.36-6.09,5.58,0,.18,0,.37,0,.55-.16,3.2,2.31,5.93,5.51,6.09.19,0,.39,0,.58,0h0Z" fill="#244545"/>
      <path d="M579.76,137.51c15.59,0,26.03-9.41,26.03-24.01v-37.72h-12.05v37.45c0,8.24-5.91,13.44-13.98,13.44s-13.98-5.2-13.98-13.44v-37.46h-12.05v37.72c0,14.61,10.44,24.02,26.03,24.02Z" fill="#244545"/>
      <path d="M616.54,123.13c3.63,8.24,12.67,14.38,24.42,14.38,10.84,0,22.89-5.87,22.89-17.79s-9.5-15.1-20.92-19.13c-7.62-2.69-12.05-3.41-12.05-8.29,0-3.99,4.16-6.5,8.87-6.5,6.45,0,10.84,4.48,13.48,8.91l9.32-6.63c-4.52-8.18-13.14-13.24-22.49-13.21-10.3,0-21.55,6-21.55,17.47s9.54,15.32,21.24,19c7.26,2.29,11.78,4.44,11.78,8.47s-4.61,6.76-10.44,6.76c-6.72.09-12.85-3.79-15.64-9.9l-8.9,6.45Z" fill="#244545"/>
      <polygon points="675.14 136.6 719.1 136.6 719.1 126.17 687.24 126.17 687.24 110.76 714.3 110.76 714.3 100.28 687.24 100.28 687.24 86.25 718.42 86.25 718.42 75.77 675.14 75.77 675.14 136.6" fill="#244545"/>
      <path d="M767.57,112.44c6.96-2.83,11.46-9.65,11.33-17.16,0-11.65-8.56-19.53-21.78-19.53h-26.83v60.79h12.14s0-22.06,0-22.06h13.22l12.41,22.12h13.27l-13.75-24.16ZM756.36,103.99h-13.93v-17.74h13.93c6.68,0,10.12,3.99,10.12,9.05,0,4.61-3.45,8.69-10.12,8.69Z" fill="#244545"/>
    </g>
    <g>
      <path d="M524.07,189.51c4.99-2.19,8.2-7.14,8.15-12.59,0-9.86-7.88-16.62-18.81-16.62h-28.01v60.84h29.97c11.25,0,18.91-6.94,18.91-16.89.14-6.61-3.98-12.55-10.22-14.74ZM497.51,170.69h13.83c4.79,0,8.38,2.77,8.38,7.57,0,4.16-2.96,7.3-7.92,7.3h-14.29v-14.87ZM521.43,203.31c.07,4.07-3.17,7.43-7.24,7.51-.26,0-.52,0-.78-.03h-15.9v-15.68h15.9c4.18-.26,7.77,2.92,8.03,7.09.02.37.02.74-.01,1.11Z" fill="#244545"/>
      <path d="M582.9,196.98c6.96-2.83,11.46-9.65,11.33-17.16,0-11.65-8.56-19.53-21.78-19.53h-26.83v60.79l12.14.02v-22.08h13.22l12.41,22.12h13.27l-13.75-24.16ZM571.7,188.53h-13.93v-17.74h13.93c6.68,0,10.12,3.99,10.12,9.05,0,4.61-3.45,8.69-10.12,8.69Z" fill="#244545"/>
      <path d="M631.86,222.05c15.59,0,26.03-9.41,26.03-24.01v-37.72h-12.04v37.45c0,8.24-5.91,13.44-13.98,13.44s-13.98-5.2-13.98-13.44v-37.46h-12.05v37.72c0,14.61,10.43,24.02,26.02,24.02Z" fill="#244545"/>
      <path d="M699.96,222.05c11.17.14,21.57-5.66,27.33-15.23l-8.91-6.45c-5.06,7.08-10.93,10.48-18.42,10.48-11.07,0-19.13-8.29-19.13-20.12s7.75-20.12,18.81-20.12c7.75,0,13.62,4.08,17.7,10.8l9.54-6.81c-5.82-9.46-16.14-15.21-27.24-15.19-16.92-.33-30.89,13.12-31.22,30.04,0,.43,0,.85,0,1.28-.21,17.09,13.48,31.11,30.58,31.32.32,0,.64,0,.96,0Z" fill="#244545"/>
      <polygon points="749.01 221.14 749.01 202.73 758.06 193.09 776.8 221.14 791.49 221.14 766.67 185.04 790.1 160.31 774.6 160.31 749.01 187.91 749.01 160.31 736.92 160.31 736.92 221.14 749.01 221.14" fill="#244545"/>
      <polygon points="798.65 221.14 810.75 221.14 810.75 183.83 827.15 217.07 834.99 217.07 851.39 183.83 851.39 221.14 863.48 221.14 863.48 160.31 850.67 160.31 831.09 200.81 811.47 160.31 798.66 160.31 798.65 221.14" fill="#244545"/>
      <path d="M909.68,160.31h-13.89l-24.55,60.83h12.9l4.52-11.92h28.22l4.49,11.92h12.9l-24.6-60.83ZM892.06,199.59l10.71-26.66,10.62,26.66h-21.32Z" fill="#244545"/>
      <rect x="942.01" y="160.3" width="12.1" height="60.84" fill="#244545"/>
      <polygon points="969.31 221.14 1013.27 221.14 1013.27 210.71 981.4 210.71 981.4 195.3 1008.46 195.3 1008.46 184.82 981.4 184.82 981.4 170.79 1012.58 170.79 1012.58 160.31 969.31 160.31 969.31 221.14" fill="#244545"/>
      <path d="M1061.74,196.98c6.96-2.83,11.46-9.65,11.33-17.16,0-11.65-8.56-19.53-21.78-19.53h-26.84v60.79h12.15s0-22.06,0-22.06h13.22l12.41,22.12h13.27l-13.75-24.16ZM1050.53,188.52h-13.93v-17.74h13.93c6.68,0,10.12,3.99,10.12,9.05,0,4.61-3.45,8.69-10.12,8.69Z" fill="#244545"/>
    </g>
    <g>
      <polygon points="485.41 245.27 502.07 306.11 519 306.11 530.11 266.91 541.27 306.11 558.21 306.11 574.87 245.27 562.73 245.27 549.25 294.06 535.59 246.21 524.69 246.21 511.03 294.06 497.55 245.27 485.41 245.27" fill="#244545"/>
      <path d="M611.48,245.28h-13.89l-24.55,60.83h12.9l4.52-11.92h28.23l4.47,11.92h12.9l-24.6-60.83ZM593.86,284.56l10.72-26.65,10.62,26.66h-21.33Z" fill="#244545"/>
      <path d="M638.72,292.64c3.63,8.24,12.67,14.38,24.42,14.38,10.84,0,22.89-5.87,22.89-17.79s-9.5-15.1-20.92-19.13c-7.62-2.69-12.05-3.41-12.05-8.29,0-3.99,4.16-6.5,8.87-6.5,6.45,0,10.84,4.48,13.48,8.91l9.32-6.63c-4.52-8.18-13.14-13.24-22.49-13.22-10.3,0-21.55,6-21.55,17.47s9.54,15.32,21.24,19c7.26,2.29,11.78,4.44,11.78,8.47s-4.61,6.76-10.44,6.76c-6.72.09-12.85-3.79-15.64-9.9l-8.91,6.46Z" fill="#244545"/>
      <polygon points="689.21 256.03 708.25 256.03 708.25 306.11 720.3 306.11 720.3 256.02 739.29 256.02 739.29 245.26 689.19 245.26 689.21 256.03" fill="#244545"/>
      <polygon points="792.7 295.68 759.95 295.68 759.95 245.28 747.85 245.28 747.85 306.11 792.7 306.11 792.7 295.68" fill="#244545"/>
    </g>
  </g>
</svg>