<?xml version="1.0" encoding="UTF-8"?>
<svg id="Ebene_1" xmlns="http://www.w3.org/2000/svg" version="1.1" viewBox="0 0 416.46 396.48">
  <!-- Generator: Adobe Illustrator 30.3.0, SVG Export Plug-In . SVG Version: 2.1.3 Build 182)  -->
  <polygon points="119.08 185.22 57.63 185.22 57.63 105.3 35.47 105.3 35.47 287.3 57.63 287.3 57.63 207.38 119.08 207.38 119.08 318.81 141.25 318.81 141.25 105.3 119.08 105.3 119.08 185.22" fill="#a8d3c4"/>
  <path d="M160.88,339.58h94.72v-96.31c-.03-12.87-6.81-24.78-17.87-31.37l-21.88-12.98h10.33c16.24-.02,29.4-13.18,29.42-29.42v-66.1h-94.72v236.18ZM183.04,125.56h50.39v43.93c0,4-3.25,7.25-7.25,7.25h-43.14v-51.19ZM226.42,230.96c4.34,2.59,7,7.26,7.01,12.31v74.15h-50.39v-112.19s43.38,25.73,43.38,25.73Z" fill="#a8d3c4"/>
  <path d="M358.84,267h-19.71v-70.7h-22.17v72.71c0,11.56-8.13,21.47-19.58,25.43V105.3h-22.16v213.14h11.09c21.46,0,39.96-12.04,48.22-29.28h46.48V105.3s-22.16,0-22.16,0v161.7Z" fill="#a8d3c4"/>
  <path d="M270.29,58.34v-30.66s-8.62-1.97-8.62-1.97c-35.18-7.98-71.71-7.98-106.89,0l-8.62,1.97v30.66H35.46v22.16h110.71s22.16,0,22.16,0h0s0,0,0,0v-22.16h0v-12.8c26.38-4.87,53.42-4.87,79.8,0v12.8h0v22.16h0s22.16,0,22.16,0h0s110.71,0,110.71,0v-22.16h-110.71Z" fill="#a8d3c4"/>
</svg>